<svg width="181" height="204" viewBox="0 0 181 204" fill="none" xmlns="http://www.w3.org/2000/svg">
<g clip-path="url(#clip0_101_4715)">
<path d="M45.6585 195.761C45.4588 195.771 45.261 195.712 45.0921 195.593C44.9232 195.473 44.7912 195.298 44.7141 195.092C44.637 194.885 44.6184 194.658 44.6609 194.439C44.7034 194.22 44.805 194.022 44.9518 193.87C44.9764 193.761 44.994 193.682 45.0186 193.573C44.8275 193.03 44.4957 192.563 44.0658 192.232C43.6359 191.901 43.1275 191.721 42.6057 191.716C42.0839 191.71 41.5726 191.879 41.1372 192.201C40.7018 192.523 40.3622 192.982 40.1619 193.521C39.0063 196.548 37.5107 199.68 38.2545 203.014C33.3414 191.364 35.0122 176.874 42.2731 166.911C44.2801 165.675 45.9068 163.477 46.3303 160.925C45.337 161.302 44.0986 160.398 44.8454 159.228C45.1691 158.78 45.496 158.336 45.8197 157.889C42.0466 153.393 37.5509 160.459 41.7041 166.526C40.3454 168.432 39.1686 170.491 38.1928 172.671C38.4182 170.357 38.1492 168.016 37.408 165.84C36.6569 163.813 35.249 162.106 34.0091 160.353C32.5017 158.218 29.3991 159.203 29.1962 161.913C30.5874 162.424 30.7682 164.673 29.1768 164.98C29.5936 170.021 32.5375 174.654 36.5921 176.865C35.0948 181.565 34.5101 186.569 34.8771 191.541C34.1614 185.73 28.585 184.319 24.6874 182.009C24.4394 181.831 24.1504 181.738 23.8557 181.741C23.561 181.743 23.2734 181.842 23.0279 182.024C22.7824 182.207 22.5897 182.465 22.4732 182.768C22.3567 183.071 22.3216 183.405 22.372 183.73C22.91 183.975 23.4248 184.278 23.9091 184.637C24.136 184.808 24.3102 185.053 24.4077 185.339C24.5053 185.624 24.5214 185.937 24.454 186.233C24.3866 186.53 24.2388 186.796 24.0311 186.994C23.8233 187.193 23.5656 187.315 23.2934 187.344C25.258 192.784 30.3374 196.436 35.5542 196.416C36.0555 198.853 36.7819 201.226 37.7216 203.495H45.4644C45.4922 203.399 45.5172 203.299 45.5422 203.203C44.8255 203.253 44.106 203.205 43.3997 203.06C45.2958 200.549 46.7623 199.267 45.6587 195.761L45.6585 195.761Z" fill="#F2F2F2"/>
<path d="M114.686 195.761C114.886 195.771 115.084 195.712 115.253 195.593C115.422 195.473 115.554 195.298 115.631 195.092C115.708 194.885 115.727 194.658 115.684 194.439C115.642 194.22 115.54 194.022 115.393 193.87C115.369 193.761 115.351 193.682 115.326 193.573C115.517 193.03 115.849 192.563 116.279 192.232C116.709 191.901 117.217 191.721 117.739 191.716C118.261 191.71 118.772 191.879 119.208 192.201C119.643 192.523 119.983 192.982 120.183 193.521C121.339 196.548 122.834 199.68 122.09 203.014C127.004 191.364 125.333 176.874 118.072 166.911C116.065 165.675 114.438 163.477 114.015 160.925C115.008 161.302 116.246 160.398 115.5 159.228C115.176 158.78 114.849 158.336 114.525 157.889C118.298 153.393 122.794 160.459 118.641 166.526C120 168.432 121.176 170.491 122.152 172.671C121.927 170.357 122.196 168.016 122.937 165.84C123.688 163.813 125.096 162.106 126.336 160.353C127.843 158.218 130.946 159.203 131.149 161.913C129.758 162.424 129.577 164.673 131.168 164.98C130.751 170.021 127.807 174.654 123.753 176.865C125.25 181.565 125.835 186.569 125.468 191.541C126.184 185.73 131.76 184.319 135.658 182.009C135.906 181.831 136.195 181.738 136.489 181.741C136.784 181.743 137.072 181.842 137.317 182.024C137.563 182.207 137.755 182.465 137.872 182.768C137.988 183.071 138.023 183.405 137.973 183.73C137.435 183.975 136.92 184.278 136.436 184.637C136.209 184.808 136.035 185.053 135.937 185.339C135.84 185.624 135.824 185.937 135.891 186.233C135.958 186.53 136.106 186.796 136.314 186.994C136.522 187.193 136.779 187.315 137.052 187.344C135.087 192.784 130.008 196.436 124.791 196.416C124.289 198.853 123.563 201.226 122.623 203.495H114.881C114.853 203.399 114.828 203.299 114.803 203.203C115.519 203.253 116.239 203.205 116.945 203.06C115.049 200.549 113.583 199.267 114.686 195.761L114.686 195.761Z" fill="#F2F2F2"/>
<path d="M117.558 197.047L114.223 197.896L109.71 183.911L114.631 182.658L117.558 197.047Z" fill="#FFB6B6"/>
<path d="M118.467 200.909L108.213 203.519L108.183 203.374C107.942 202.19 108.132 200.947 108.71 199.919C109.288 198.891 110.207 198.162 111.266 197.893L111.266 197.893L112.816 195.826L116.634 196.526L117.529 196.299L118.467 200.909Z" fill="#2F2E41"/>
<path d="M171.348 128.879L173.181 132.108L162.919 141.556L160.213 136.79L171.348 128.879Z" fill="#FFB6B6"/>
<path d="M174.295 126.625L179.933 136.556L179.82 136.636C178.904 137.287 177.794 137.504 176.735 137.24C175.675 136.975 174.753 136.251 174.171 135.226L174.171 135.225L171.911 134.285L171.22 130.027L170.728 129.16L174.295 126.625Z" fill="#2F2E41"/>
<path d="M65.057 94.3491L64.2334 89.0087L76.7543 82.6833L79.4583 77.3274C79.3709 76.8574 79.4014 76.3696 79.5464 75.9178C79.6913 75.466 79.9451 75.0678 80.2796 74.7672C80.6142 74.4666 81.0165 74.2753 81.4421 74.2144C81.8677 74.1535 82.3001 74.2254 82.6914 74.4222C83.0828 74.619 83.4179 74.933 83.6598 75.3294C83.9017 75.7259 84.0409 76.1895 84.0621 76.669C84.0833 77.1484 83.9856 77.6251 83.7798 78.0463C83.574 78.4675 83.2682 78.8169 82.8961 79.0559L78.448 86.7495L65.057 94.3491Z" fill="#A0616A"/>
<path d="M61.251 89.984L66.8895 86.7617L68.3821 93.0318L64.4656 96.2797L61.251 89.984Z" fill="white"/>
<path d="M48.5985 196.562L52.0076 196.561L53.6295 181.85L48.5977 181.85L48.5985 196.562Z" fill="#A0616A"/>
<path d="M53.1425 196.904V194.318L52.2462 194.38L48.5978 194.621L47.7534 194.679L47.1078 203.339L47.0732 203.804H49.494L49.5718 203.343L49.9234 201.247L50.8312 203.343L51.0301 203.804H57.448C57.8299 203.801 58.1955 203.63 58.4653 203.327C58.735 203.025 58.8873 202.616 58.889 202.188C59.1599 200.773 53.8226 197.713 53.1425 196.904Z" fill="#2F2E41"/>
<path d="M8.12873 138.176L7.33398 141.885L19.7436 147.08L20.9164 141.605L8.12873 138.176Z" fill="#A0616A"/>
<path d="M7.04094 143.04L9.28851 143.643L9.44423 142.653L10.0847 138.628L10.2312 137.695L2.85429 134.974L2.4588 134.828L1.89437 137.462L2.27697 137.654L4.01659 138.525L1.98334 139.024L1.53622 139.133L0.039815 146.115C-0.0468805 146.531 0.0166501 146.969 0.216624 147.333C0.416598 147.697 0.736861 147.958 1.10787 148.059C2.27498 148.684 6.17894 143.591 7.04094 143.04Z" fill="#2F2E41"/>
<path d="M53.8702 101.348L49.4819 99.0527L40.7308 110.901L35.4004 112.409C35.0181 112.191 34.5894 112.095 34.1616 112.133C33.7338 112.17 33.3236 112.339 32.9763 112.621C32.6291 112.903 32.3582 113.287 32.1936 113.73C32.0291 114.174 31.9772 114.659 32.0439 115.134C32.1105 115.608 32.293 116.052 32.5712 116.418C32.8494 116.783 33.2125 117.055 33.6204 117.204C34.0282 117.353 34.465 117.374 34.8824 117.262C35.2998 117.151 35.6817 116.913 35.9857 116.574L43.7912 113.799L53.8702 101.348Z" fill="#A0616A"/>
<path d="M116.084 57.488C115.154 57.488 114.244 57.1794 113.471 56.6013C112.698 56.0231 112.095 55.2014 111.739 54.2399C111.383 53.2785 111.29 52.2206 111.471 51.1999C111.653 50.1793 112.101 49.2418 112.758 48.5059C113.416 47.7701 114.254 47.269 115.166 47.0659C116.079 46.8629 117.024 46.9671 117.884 47.3654C118.743 47.7636 119.478 48.438 119.994 49.3033C120.511 50.1685 120.787 51.1858 120.787 52.2264C120.786 53.6214 120.29 54.9588 119.408 55.9452C118.526 56.9316 117.331 57.4865 116.084 57.488ZM116.084 47.5687C115.261 47.5687 114.456 47.8418 113.771 48.3536C113.086 48.8654 112.553 49.5929 112.238 50.444C111.922 51.2951 111.84 52.2316 112.001 53.1351C112.161 54.0386 112.558 54.8686 113.14 55.52C113.722 56.1714 114.464 56.615 115.272 56.7947C116.079 56.9744 116.916 56.8822 117.677 56.5296C118.438 56.1771 119.088 55.5801 119.546 54.8141C120.003 54.0482 120.247 53.1476 120.247 52.2264C120.246 50.9915 119.807 49.8076 119.027 48.9344C118.246 48.0612 117.188 47.5701 116.084 47.5687Z" fill="#E6E6E6"/>
<path d="M115.752 54.2074C115.742 54.2074 115.733 54.2071 115.724 54.2066C115.64 54.202 115.558 54.1774 115.484 54.1343C115.41 54.0912 115.345 54.0306 115.294 53.9568L114.553 52.8912C114.506 52.8239 114.472 52.747 114.451 52.6648C114.431 52.5827 114.426 52.4968 114.435 52.4123C114.445 52.3277 114.469 52.246 114.506 52.1719C114.544 52.0979 114.594 52.0328 114.655 51.9805L114.681 51.9573C114.741 51.9049 114.81 51.8663 114.884 51.8437C114.957 51.821 115.034 51.8148 115.109 51.8254C115.185 51.836 115.258 51.8631 115.324 51.9053C115.391 51.9474 115.449 52.0038 115.495 52.0711C115.533 52.1248 115.58 52.1689 115.634 52.2003C115.688 52.2317 115.748 52.2497 115.809 52.253C115.869 52.2563 115.93 52.2449 115.987 52.2195C116.043 52.1941 116.094 52.1554 116.136 52.106L117.64 50.3293C117.746 50.2046 117.892 50.1319 118.046 50.1272C118.2 50.1225 118.349 50.1863 118.46 50.3044L118.485 50.3307C118.54 50.3893 118.585 50.4595 118.616 50.5374C118.647 50.6152 118.664 50.6991 118.666 50.7843C118.668 50.8695 118.655 50.9543 118.628 51.0339C118.601 51.1135 118.56 51.1862 118.507 51.2481L116.173 54.0047C116.119 54.0688 116.053 54.1198 115.981 54.1546C115.909 54.1895 115.831 54.2074 115.752 54.2074Z" fill="#E6E6E6"/>
<path d="M92.6054 121.191C91.6752 121.191 90.766 120.883 89.9925 120.304C89.2191 119.726 88.6163 118.904 88.2603 117.943C87.9044 116.982 87.8112 115.924 87.9927 114.903C88.1742 113.882 88.6221 112.945 89.2798 112.209C89.9376 111.473 90.7756 110.972 91.6879 110.769C92.6002 110.566 93.5458 110.67 94.4052 111.068C95.2646 111.467 95.9991 112.141 96.5159 113.006C97.0327 113.872 97.3085 114.889 97.3085 115.93C97.3071 117.325 96.8112 118.662 95.9295 119.648C95.0478 120.635 93.8523 121.19 92.6054 121.191ZM92.6054 111.272C91.782 111.272 90.9771 111.545 90.2924 112.057C89.6077 112.569 89.0741 113.296 88.759 114.147C88.4439 114.998 88.3614 115.935 88.5221 116.838C88.6827 117.742 89.0792 118.572 89.6615 119.223C90.2437 119.874 90.9856 120.318 91.7932 120.498C92.6008 120.678 93.4379 120.585 94.1987 120.233C94.9594 119.88 95.6097 119.283 96.0671 118.517C96.5246 117.751 96.7688 116.851 96.7688 115.93C96.7675 114.695 96.3285 113.511 95.548 112.638C94.7675 111.764 93.7092 111.273 92.6054 111.272Z" fill="#E6E6E6"/>
<path d="M92.2734 117.911C92.264 117.911 92.2545 117.91 92.245 117.91C92.1615 117.905 92.0799 117.881 92.0057 117.837C91.9315 117.794 91.8666 117.734 91.8153 117.66L91.0744 116.594C91.0276 116.527 90.9932 116.45 90.9729 116.368C90.9527 116.286 90.9472 116.2 90.9566 116.115C90.9661 116.031 90.9903 115.949 91.028 115.875C91.0656 115.801 91.1159 115.736 91.1761 115.684L91.2027 115.66C91.2629 115.608 91.3316 115.569 91.4051 115.547C91.4786 115.524 91.5553 115.518 91.6309 115.529C91.7065 115.539 91.7795 115.566 91.8458 115.608C91.912 115.651 91.9702 115.707 92.0169 115.774C92.0543 115.828 92.1017 115.872 92.1557 115.903C92.2098 115.935 92.2693 115.953 92.3301 115.956C92.3909 115.959 92.4517 115.948 92.5082 115.923C92.5647 115.897 92.6157 115.859 92.6576 115.809L94.1618 114.032C94.2677 113.908 94.4135 113.835 94.5673 113.83C94.721 113.826 94.8701 113.889 94.9819 114.008L95.0066 114.034C95.0619 114.092 95.1063 114.163 95.1374 114.24C95.1684 114.318 95.1855 114.402 95.1875 114.487C95.1896 114.573 95.1766 114.657 95.1494 114.737C95.1221 114.817 95.0811 114.889 95.0287 114.951L92.6943 117.708C92.6402 117.772 92.5749 117.823 92.5025 117.858C92.4302 117.893 92.3522 117.911 92.2734 117.911Z" fill="#E6E6E6"/>
<path d="M41.0615 50.2419C40.1313 50.2419 39.222 49.9333 38.4486 49.3552C37.6752 48.777 37.0724 47.9553 36.7164 46.9939C36.3604 46.0324 36.2673 44.9745 36.4488 43.9539C36.6302 42.9332 37.0782 41.9957 37.7359 41.2598C38.3936 40.524 39.2317 40.0229 40.144 39.8199C41.0563 39.6168 42.0019 39.721 42.8613 40.1193C43.7207 40.5175 44.4552 41.1919 44.972 42.0572C45.4887 42.9224 45.7646 43.9397 45.7646 44.9803C45.7632 46.3753 45.2672 47.7127 44.3855 48.6991C43.5038 49.6855 42.3084 50.2404 41.0615 50.2419ZM41.0615 40.3226C40.238 40.3226 39.4331 40.5957 38.7485 41.1076C38.0638 41.6194 37.5302 42.3468 37.215 43.1979C36.8999 44.049 36.8175 44.9855 36.9781 45.889C37.1388 46.7925 37.5353 47.6225 38.1176 48.2739C38.6998 48.9253 39.4416 49.3689 40.2493 49.5486C41.0569 49.7283 41.894 49.6361 42.6547 49.2836C43.4155 48.931 44.0657 48.334 44.5232 47.568C44.9807 46.8021 45.2249 45.9016 45.2249 44.9803C45.2236 43.7454 44.7846 42.5615 44.0041 41.6883C43.2235 40.8152 42.1653 40.324 41.0615 40.3226Z" fill="#E6E6E6"/>
<path d="M40.7304 46.9633C40.721 46.9633 40.7115 46.9629 40.7021 46.9624C40.6186 46.9579 40.5369 46.9332 40.4628 46.8901C40.3886 46.847 40.3236 46.7864 40.2723 46.7126L39.5315 45.647C39.4847 45.5798 39.4502 45.5029 39.43 45.4207C39.4098 45.3385 39.4042 45.2527 39.4137 45.1681C39.4231 45.0836 39.4473 45.0019 39.485 44.9278C39.5226 44.8537 39.573 44.7887 39.6331 44.7363L39.6598 44.7131C39.7199 44.6608 39.7887 44.6222 39.8621 44.5995C39.9356 44.5769 40.0123 44.5707 40.0879 44.5813C40.1636 44.5918 40.2366 44.619 40.3028 44.6611C40.369 44.7033 40.4272 44.7596 40.4739 44.827C40.5114 44.8807 40.5587 44.9248 40.6128 44.9562C40.6668 44.9876 40.7263 45.0055 40.7871 45.0088C40.848 45.0122 40.9087 45.0007 40.9652 44.9754C41.0217 44.95 41.0727 44.9113 41.1146 44.8619L42.6189 43.0852C42.7248 42.9604 42.8706 42.8877 43.0243 42.8831C43.178 42.8784 43.3272 42.9421 43.439 43.0603L43.4636 43.0866C43.5189 43.1452 43.5634 43.2154 43.5944 43.2932C43.6255 43.371 43.6425 43.4549 43.6446 43.5401C43.6466 43.6253 43.6337 43.7101 43.6064 43.7897C43.5792 43.8693 43.5382 43.9421 43.4857 44.004L41.1513 46.7606C41.0972 46.8246 41.0319 46.8756 40.9596 46.9105C40.8872 46.9453 40.8092 46.9633 40.7304 46.9633Z" fill="#E6E6E6"/>
<path d="M78.7144 140.754C67.8086 140.754 55.275 127.215 44.1858 133.648C10.6109 153.125 15.2327 120.533 5.58691 108.412L5.90359 107.701C16.5466 118.378 29.8348 127.064 44.3316 132.821C57.4322 138.025 70.6311 140.436 82.4964 139.799L82.517 140.653C81.264 140.721 79.9964 140.755 78.7144 140.754Z" fill="#F2F2F2"/>
<path d="M63.7542 49.2128C65.0132 49.2128 66.0339 47.6816 66.0339 45.7929C66.0339 43.9042 65.0132 42.373 63.7542 42.373C62.4952 42.373 61.4746 43.9042 61.4746 45.7929C61.4746 47.6816 62.4952 49.2128 63.7542 49.2128Z" fill="#E6E6E6"/>
<path d="M90.0839 102.562C89.0417 103.339 87.975 101.49 89.0372 100.747C90.0794 99.9706 91.1461 101.82 90.0839 102.562Z" fill="#E6E6E6"/>
<path d="M84.0857 40.3139C85.7251 40.3139 87.0542 38.827 87.0542 36.9929C87.0542 35.1587 85.7251 33.6719 84.0857 33.6719C82.4462 33.6719 81.1172 35.1587 81.1172 36.9929C81.1172 38.827 82.4462 40.3139 84.0857 40.3139Z" fill="#FF6584"/>
<path opacity="0.3" d="M94.4678 55.1916L111.359 0L92.8114 54.5309C92.7196 54.6603 92.6568 54.8124 92.6281 54.9744C92.5994 55.1364 92.6056 55.3038 92.6463 55.4626C92.6869 55.6214 92.7608 55.767 92.8619 55.8875C92.9629 56.0079 93.0881 56.0997 93.2272 56.1552C93.3663 56.2107 93.5152 56.2282 93.6615 56.2065C93.8079 56.1847 93.9475 56.1242 94.0688 56.03C94.1901 55.9358 94.2895 55.8106 94.3589 55.6648C94.4283 55.519 94.4656 55.3568 94.4678 55.1916H94.4678Z" fill="#F0F0F0"/>
<path d="M77.4184 122.431C79.0135 122.431 80.3066 120.984 80.3066 119.2C80.3066 117.415 79.0135 115.969 77.4184 115.969C75.8233 115.969 74.5303 117.415 74.5303 119.2C74.5303 120.984 75.8233 122.431 77.4184 122.431Z" fill="#F2F2F2"/>
<path d="M49.4459 120.432C49.4459 120.432 42.2458 125.677 44.1497 129.162C44.2153 129.282 35.5492 142.087 35.5492 142.087L19.1897 140.925L18.6133 147.051L33.1777 151.77C33.1777 151.77 36.7408 154.699 39.4933 151.472C42.2458 148.246 51.4142 138.365 51.4142 138.365L51.8564 158.314L47.254 185.957L54.126 185.47L60.8147 157.737L63.2836 126.322L49.4459 120.432Z" fill="#2F2E41"/>
<path d="M54.5746 88.952L51.5469 91.519L48.0958 99.7592L51.4143 104.801C51.4143 104.801 54.2057 110.213 49.7376 115.455C45.2696 120.696 41.8386 126.294 45.4148 126.094C48.9911 125.894 63.4753 134.136 63.5707 127.384C63.666 120.632 63.8588 115.455 63.8588 115.455L67.6563 104.679C67.6563 104.679 69.9187 98.2513 68.3303 96.3271C66.7418 94.4029 64.615 91.9441 64.615 91.9441L60.7474 87.6172H57.2551L54.5746 88.952Z" fill="white"/>
<path d="M60.2267 73.12C67.0192 77.4443 61.4429 88.8538 54.5237 84.7909C47.7314 80.4669 53.3077 69.0574 60.2267 73.12Z" fill="#A0616A"/>
<path d="M63.8588 75.5186C63.3828 76.2111 62.3885 75.8864 60.4412 76.3805C60.4454 75.6421 60.3692 74.9058 60.2141 74.1881C60.0692 75.0768 59.7517 75.9191 59.284 76.6555C57.5931 76.8653 59.6659 82.612 58.8001 86.8373C57.6847 77.9234 55.3385 80.2588 56.5237 82.0268C57.2825 83.1587 56.7767 86.5543 54.5003 84.8565C50.7443 86.8535 45.3947 76.9334 51.3237 72.281C51.2178 69.7662 53.7189 69.369 55.2591 70.1422C58.9968 67.0271 63.2672 71.0185 63.8588 75.5186Z" fill="#2F2E41"/>
<path d="M46.4305 69.0138C44.9182 79.4159 36.8126 67.1007 33.0013 77.3375C31.803 81.0446 33.859 83.6966 35.1595 86.7736C35.4563 89.3025 32.5158 90.5854 32.2077 92.9132C32.122 98.2498 39.8178 97.9233 41.9693 94.5563C44.1799 91.0317 41.5401 86.3029 42.8688 82.5197C44.7363 77.2673 52.3312 77.2283 52.9928 71.1175C51.7114 69.0761 48.2658 66.738 46.4305 69.0138Z" fill="#2F2E41"/>
<path d="M52.5564 70.0297C52.5069 70.053 52.4574 70.0763 52.4131 70.1025H52.4105C52.3689 70.1258 52.3272 70.1491 52.2856 70.1753C52.2803 70.1782 52.2778 70.1811 52.2725 70.1841C52.2179 70.1258 52.1632 70.0675 52.1059 70.0093C52.0911 70.1042 52.0946 70.2015 52.1163 70.2947L52.1241 70.3297C52.1762 70.3909 52.2309 70.4491 52.2882 70.5103C52.3403 70.4666 52.3897 70.42 52.4418 70.3763C52.473 70.3472 52.5043 70.318 52.5381 70.2889C52.5433 70.2132 52.5512 70.1258 52.559 70.0297L52.5564 70.0297ZM54.1239 66.7903C52.9625 66.4932 52.5876 68.1915 52.4756 69.0101C52.0538 66.0388 50.2988 66.9739 50.9055 69.0013C51.0989 69.6016 51.4032 70.1495 51.7986 70.6093C51.8533 70.6793 51.9132 70.7492 51.9757 70.8191C51.9054 71.2269 52.2595 71.1221 52.7386 70.7463C53.0924 70.4648 53.4196 70.1437 53.7151 69.7879C54.6707 68.6664 55.4154 67.1661 54.1239 66.7903ZM54.1603 68.4624C53.802 68.9793 53.4001 69.4563 52.96 69.8869C52.8219 70.0267 52.6813 70.1607 52.5381 70.2889C52.5355 70.3151 52.5355 70.3384 52.5329 70.3588C52.5229 70.3871 52.5107 70.4144 52.4965 70.4404C52.3506 70.7346 52.1866 70.5744 52.1241 70.3297C52.1189 70.321 52.1111 70.3122 52.1059 70.3035C51.8978 70.063 51.7168 69.795 51.5669 69.5053C50.4915 67.4196 52.2231 66.0009 52.1371 69.8957C52.1213 69.9314 52.1107 69.9698 52.1059 70.0093C52.0911 70.1042 52.0946 70.2015 52.1163 70.2947L52.1241 70.3297C52.1762 70.3909 52.2309 70.4491 52.2882 70.5103C52.3403 70.4666 52.3897 70.42 52.4418 70.3763C52.473 70.3472 52.5043 70.318 52.5381 70.2889C52.5433 70.2132 52.5512 70.1258 52.559 70.0297V70.0267C52.6267 69.246 52.8116 67.8419 53.1527 67.4603C53.9026 66.8165 54.8738 67.5128 54.1603 68.4624ZM52.5564 70.0297C52.5069 70.053 52.4574 70.0763 52.4131 70.1025H52.4105C52.3689 70.1258 52.3272 70.1491 52.2856 70.1753C52.2803 70.1782 52.2778 70.1811 52.2725 70.1841C52.2179 70.1258 52.1632 70.0675 52.1059 70.0093C52.0911 70.1042 52.0946 70.2015 52.1163 70.2947L52.1241 70.3297C52.1762 70.3909 52.2309 70.4491 52.2882 70.5103C52.3403 70.4666 52.3897 70.42 52.4418 70.3763C52.473 70.3472 52.5043 70.318 52.5381 70.2889C52.5433 70.2132 52.5512 70.1258 52.559 70.0297L52.5564 70.0297Z" fill="#2F2E41"/>
<path d="M115.338 127.381L112.83 134.7L101.062 160.67L111.402 190.881L116.739 189.305L112.34 160.67L124.96 143.516L139.947 154.888C139.947 154.888 146.594 160.693 149.122 155.19C151.651 149.686 168.013 137.981 168.013 137.981L163.965 133.15L145.123 143.015L132.119 122.537L115.338 127.381Z" fill="#2F2E41"/>
<path d="M127.997 92.8567L123.867 87.893L116.783 86.8027L108.104 93.6008L108.191 101.125L112.482 118.856C112.482 118.856 110.847 131.595 115.412 131.467C119.977 131.339 122.466 128.793 124.325 129.311C126.184 129.83 134.088 132.036 134.589 129.725C135.09 127.414 137.752 129.069 137.635 126.883C137.518 124.697 130.428 108.942 130.428 108.942L132.191 93.1845L127.997 92.8567Z" fill="white"/>
<path d="M154.144 70.007C154.181 70.4186 154.137 70.8343 154.015 71.2248C153.892 71.6153 153.695 71.971 153.437 72.267C153.178 72.563 152.865 72.792 152.519 72.9379C152.173 73.0837 151.803 73.143 151.434 73.1114L141.937 93.3171L139.388 88.9383L149.094 69.8685C149.183 69.1791 149.494 68.5499 149.97 68.1002C150.445 67.6505 151.052 67.4115 151.674 67.4286C152.297 67.4457 152.892 67.7176 153.347 68.1928C153.802 68.668 154.086 69.3135 154.144 70.007Z" fill="#FFB6B6"/>
<path d="M124.248 96.6138C124.248 96.6138 123.871 100.208 127.488 101.098C131.104 101.988 141.124 95.5821 142.767 94.6038C143.281 94.2975 143.979 92.7958 144.696 90.8776C145.017 90.0164 145.342 89.0712 145.656 88.1125C145.838 87.5577 146.708 87.4063 146.879 86.8561C147.049 86.3089 146.521 85.3629 146.675 84.8472C147.406 82.3994 147.925 80.4574 147.925 80.4574L145.528 75.4199C142.175 77.4028 140.456 81.7704 139.191 86.8023L124.248 96.6138Z" fill="white"/>
<path d="M82.0088 74.6482C82.0651 75.0571 82.2008 75.4472 82.4065 75.791C82.6121 76.1349 82.8827 76.4241 83.199 76.6383C83.5154 76.8525 83.8699 76.9865 84.2375 77.0309C84.6052 77.0753 84.9771 77.0289 85.327 76.8951L99.0413 93.799L100.53 88.8457L86.8666 73.1004C86.6267 72.4577 86.1844 71.9357 85.6235 71.6334C85.0625 71.3312 84.422 71.2696 83.8232 71.4604C83.2244 71.6512 82.709 72.081 82.3746 72.6686C82.0402 73.2561 81.91 73.9605 82.0088 74.6482Z" fill="#FFB6B6"/>
<path d="M116.905 92.0361C116.905 92.0361 118.074 95.4104 114.771 97.2845C111.469 99.1586 100.335 95.7624 98.5253 95.2751C97.9588 95.1225 96.9471 93.8641 95.8246 92.2074C95.3207 91.4636 94.7945 90.6396 94.2761 89.7993C93.9761 89.313 93.1002 89.4099 92.8114 88.9251C92.5242 88.443 92.824 87.3792 92.5594 86.923C91.3035 84.758 90.3672 83.0229 90.3672 83.0229L91.5612 77.4746C95.2506 78.4557 97.8924 82.203 100.242 86.7206L116.905 92.0361Z" fill="white"/>
<path d="M120.467 85.54C124.189 85.54 127.207 82.164 127.207 77.9995C127.207 73.835 124.189 70.459 120.467 70.459C116.744 70.459 113.727 73.835 113.727 77.9995C113.727 82.164 116.744 85.54 120.467 85.54Z" fill="#FFB6B6"/>
<path d="M128.161 73.681C127.452 72.4539 126.121 71.6361 124.831 71.8659C124.711 70.945 124.368 70.0787 123.838 69.3611C123.308 68.6436 122.613 68.1023 121.827 67.7964C121.042 67.4904 120.196 67.4315 119.382 67.6259C118.569 67.8204 117.819 68.2608 117.214 68.8992C117.015 68.7424 116.783 68.6458 116.541 68.6187C116.298 68.5916 116.054 68.6349 115.831 68.7444C115.387 68.9702 115.001 69.317 114.708 69.7531C113.968 70.7856 113.492 72.0234 113.331 73.3346C113.169 74.6458 113.329 75.9813 113.792 77.1991C113.635 76.558 114.209 75.9549 114.789 75.811C115.37 75.6671 115.978 75.8032 116.567 75.7096C117.321 75.5895 117.999 75.1001 118.754 74.9899C119.394 74.9433 120.037 75.0357 120.646 75.2619C121.255 75.4882 121.897 75.5846 122.538 75.5461C123.173 75.4617 123.992 78.157 123.981 80.0554C123.979 80.4151 124.045 80.877 124.36 80.9534C124.747 81.0474 124.971 80.4498 125.339 80.287C125.509 80.2325 125.691 80.2539 125.847 80.3467C126.003 80.4395 126.121 80.5963 126.175 80.7843C126.222 80.9753 126.227 81.176 126.19 81.3696C126.153 81.5632 126.075 81.7441 125.963 81.8974C125.737 82.2011 125.468 82.462 125.167 82.6699L125.319 82.8111C125.463 82.9813 125.655 83.0902 125.863 83.1191C126.071 83.148 126.282 83.0951 126.458 82.9694C126.806 82.7059 127.088 82.3471 127.277 81.9272C127.988 80.6972 128.496 79.3346 128.777 77.904C129.015 76.4673 128.869 74.9081 128.161 73.681Z" fill="#2F2E41"/>
<path d="M178.023 103.422C169.329 110.788 152.031 108.461 146.663 121.079C130.409 159.284 116.504 130.181 102.274 127.034L102.143 126.254C116.389 127.575 131.669 125.524 146.333 120.322C159.584 115.621 171.407 108.627 180.522 100.105L181 100.772C180.037 101.673 179.045 102.556 178.023 103.422Z" fill="#F2F2F2"/>
<path d="M141.266 203.485C141.059 204.171 22.8396 204.171 22.6162 203.487C22.823 202.799 141.043 202.799 141.266 203.485Z" fill="#CCCCCC"/>
</g>
<defs>
<clipPath id="clip0_101_4715">
<rect width="181" height="204" fill="white"/>
</clipPath>
</defs>
</svg>
