<svg width="357" height="182" viewBox="0 0 357 182" fill="none" xmlns="http://www.w3.org/2000/svg">
<g clip-path="url(#clip0_101_3887)">
<path d="M177.844 44.9153L177.834 44.9773L177.809 45.1565L175.184 63.8948L159.108 69.7614L158.856 69.6416L149.856 65.3903L145.202 47.6299L144.883 46.4107L144.98 46.3736L164.89 38.9336L177.832 44.9081L177.844 44.9153Z" fill="#17181C"/>
<path d="M158.856 69.6416L149.856 65.3902L144.883 46.4106L144.98 46.3735L157.952 51.8167L158.856 69.6416Z" fill="#17181C"/>
<path opacity="0.2" d="M159.082 69.4249L152.235 56.376L153.115 52.6767L148.974 47.8265L148.621 48.1245L152.611 52.7971L149.63 65.3371L150.081 65.4433L152.073 57.0606L158.671 69.6376L159.082 69.4249Z" fill="black"/>
<path d="M177.844 45.1451L177.809 45.1565L157.952 52.047L145.202 47.6299L144.883 46.4107L144.98 46.3736L164.89 38.9336L177.832 44.9081L177.834 44.9773L177.844 45.1451Z" fill="#3F3D56"/>
<path d="M158.298 52.3919L154.25 49.2863L155.175 45.8354L166.74 41.6941L174.605 42.1542L177.728 44.8L177.959 45.49L158.298 52.3919Z" fill="#17181C"/>
<path d="M145.115 46.4106L154.252 46.0652L159.201 44.3945L166.918 41.6941L168.361 39.6238L164.76 38.9827L145.115 46.4106Z" fill="#17181C"/>
<path d="M163.317 42.7085L158.553 44.3713L158.706 44.8054L163.47 43.1426L163.317 42.7085Z" fill="#CCCCCC"/>
<path d="M100.569 15.8038L98.3359 26.91L108.758 34.6847L113.597 20.2462L100.569 15.8038Z" fill="#9F616A"/>
<path d="M108.944 25.9846C114.495 25.9846 118.994 21.5094 118.994 15.9888C118.994 10.4683 114.495 5.99304 108.944 5.99304C103.394 5.99304 98.8945 10.4683 98.8945 15.9888C98.8945 21.5094 103.394 25.9846 108.944 25.9846Z" fill="#9F616A"/>
<path d="M87.17 91.7254C87.216 94.9503 101.338 130.842 99.3769 135.515C96.2862 138.658 89.6379 155.383 86.7975 159.845C86.4256 159.845 84.5645 165.398 84.5645 165.398C84.5645 165.398 89.0311 172.432 93.87 169.47C99.9544 155.237 115.192 147.299 115.461 128.748C116.197 134.608 118.368 172.224 118.368 172.224C118.368 172.224 117.952 172.4 127.326 173.293C128.781 151.461 134.729 114.319 121.414 90.9846C117.32 89.1339 87.17 91.7254 87.17 91.7254Z" fill="#2F2E41"/>
<path d="M118.367 171.492C117.932 172.324 114.811 180.007 117.651 180.777C120.926 181.665 124.101 180.421 124.101 180.421C124.101 180.421 129.834 182.203 133.343 179.938C134.98 178.309 134.608 176.829 133.826 175.755C133.429 175.226 132.921 174.79 132.337 174.477C131.753 174.164 131.107 173.981 130.444 173.942C128.664 173.816 128.098 173.487 127.895 172.676C127.597 171.492 118.367 171.492 118.367 171.492Z" fill="#2F2E41"/>
<path d="M87.7402 164.782C87.7402 164.782 79.7401 167.295 81.4244 170.227C82.5182 172.044 84.1153 173.508 86.0246 174.446C86.0246 174.446 87.6931 181.287 92.3247 181.287C94.6405 181.287 95.43 179.978 95.6405 178.67C95.7357 178.017 95.6864 177.351 95.496 176.718C95.3056 176.086 94.9787 175.503 94.5381 175.009C93.3689 173.668 93.2024 173.038 93.635 172.321C94.2666 171.274 87.7402 164.782 87.7402 164.782Z" fill="#2F2E41"/>
<path d="M123.277 92.8092C123.277 92.8092 121.786 95.7708 115.831 94.6589C109.875 93.5505 86.4269 94.6589 86.4269 94.6589C86.4269 94.6589 87.7276 68.1897 84.75 52.2697C81.7723 36.3498 93.4966 27.2796 93.4966 27.2796L97.2196 23.5767C100.943 23.2096 108.804 34.6997 108.804 34.6997C111.391 35.1309 113.806 46.0685 115.867 56.4181C115.988 57.0097 116.103 57.5942 116.218 58.1787C117.167 63.0042 118.49 68.375 119.281 73.197C119.339 73.5391 119.393 73.8777 119.443 74.2163C120.384 80.4779 121.664 86.6845 123.277 92.8092Z" fill="#E6E6E6"/>
<path d="M97.1862 9.76485C97.1862 9.76485 95.3072 5.65334 100.193 3.78446C100.193 3.78446 104.326 -2.94348 112.594 1.54182C112.594 1.54182 118.231 3.78446 118.231 9.76485C118.231 15.7452 120.11 16.8666 120.11 16.8666C120.11 16.8666 117.312 14.0114 116.56 11.7687C115.809 9.52612 109.963 9.01732 107.709 11.26C105.454 13.5026 99.8168 13.1288 99.8168 13.1288L100.193 21.3519C100.193 21.3519 98.3136 16.4928 97.562 16.4928C96.8104 16.4928 96.0588 9.76485 97.1862 9.76485Z" fill="#2F2E41"/>
<path opacity="0.2" d="M119.281 73.197C110.402 68.3964 96.0187 57.8686 91.3785 52.1735C85.2619 44.6715 91.9339 38.9693 91.9339 38.9693C99.498 34.2221 108.542 50.5092 108.542 50.5092L115.866 56.4181C115.988 57.0097 116.103 57.5942 116.217 58.1787C117.167 63.0042 118.489 68.375 119.281 73.197Z" fill="black"/>
<path d="M145.787 67.6648C145.787 67.6648 158.988 72.9948 161.16 67.0032C163.333 61.0116 150.738 61.1144 150.738 61.1144L145.794 61.8112L145.787 67.6648Z" fill="#9F616A"/>
<path d="M90.2414 36.5311C90.2414 36.5311 83.5727 42.2366 89.6848 49.7362C95.797 57.2357 123.887 73.2595 123.887 73.2595L142.184 68.3398L147.362 69.2822L148.338 59.6132L140.71 60.3538L121.346 56.2529L108.998 46.2878C108.998 46.2878 97.8036 31.7865 90.2414 36.5311Z" fill="#E6E6E6"/>
<path opacity="0.2" d="M114.536 105.264L115.702 132.379L112.744 105.264H114.536Z" fill="black"/>
<path d="M240.499 85.8683L229.908 88.3091C229.088 88.4979 228.227 88.3616 227.508 87.929C226.788 87.4965 226.266 86.8018 226.053 85.9926C225.929 85.5233 225.914 85.0323 226.008 84.5564C226.103 84.0804 226.304 83.6319 226.598 83.2445C226.891 82.8571 227.269 82.5407 227.703 82.3192C228.137 82.0977 228.616 81.9768 229.103 81.9655L239.334 81.7289L240.499 85.8683Z" fill="#FFB9B9"/>
<path d="M239.374 87.4142L237.021 80.3955L251.123 75.6046L247.381 42.8218C254.119 44.0404 257.326 49.3108 257.026 56.1165L258.85 78.4867L239.374 87.4142Z" fill="#3F3D56"/>
<path d="M249.117 35.5941H272.157V24.1983C272.165 21.1206 270.952 18.1639 268.782 15.9698C267.722 14.8888 266.455 14.0302 265.056 13.4446C263.657 12.8591 262.154 12.5585 260.636 12.5607C257.605 12.5662 254.697 13.7583 252.542 15.8791C250.387 17.9998 249.158 20.879 249.121 23.8939C249.119 23.9983 249.117 24.0974 249.117 24.1983L249.117 35.5941Z" fill="#2F2E41"/>
<path d="M281.79 169.51L274.425 168.67L265.611 109.468L247.381 168.91L239.412 169.15L248.467 96.0189L247.139 79.3273L269.716 72.2423C285.707 83.345 285.376 122.56 281.79 169.51Z" fill="#2F2E41"/>
<path d="M258.609 33.3352C263.41 33.3352 267.302 29.4642 267.302 24.6891C267.302 19.9141 263.41 16.0431 258.609 16.0431C253.808 16.0431 249.916 19.9141 249.916 24.6891C249.916 29.4642 253.808 33.3352 258.609 33.3352Z" fill="#FFB9B9"/>
<path d="M267.302 40.3L252.572 44.1427C255.054 39.3959 255.848 34.9647 254.504 30.9335L264.887 29.2523C264.22 33.107 265.086 37.0688 267.302 40.3Z" fill="#FFB9B9"/>
<path d="M272.253 75.4846C263.992 80.7102 254.368 86.7134 247.261 80.8884L243.88 64.557C241.194 62.1767 242.385 54.8317 246.017 44.3623C246.248 43.6978 246.628 43.0942 247.128 42.5973C247.628 42.1005 248.235 41.7234 248.904 41.4946L254.505 39.5795C256.987 41.6559 261.057 40.4175 265.854 37.6582L271.408 39.0992L273.823 57.1118C270.337 62.3061 270.946 69.2225 272.253 75.4846Z" fill="#3F3D56"/>
<path d="M265.37 82.506L254.779 84.9468C253.96 85.1356 253.098 84.9993 252.379 84.5667C251.659 84.1342 251.137 83.4395 250.924 82.6303C250.8 82.161 250.785 81.67 250.879 81.1941C250.974 80.7181 251.175 80.2696 251.469 79.8822C251.762 79.4948 252.14 79.1784 252.574 78.9569C253.008 78.7354 253.487 78.6145 253.974 78.6032L264.205 78.3666L265.37 82.506Z" fill="#FFB9B9"/>
<path d="M280.51 180.829C279.273 181.39 278.237 177.91 277.193 178.93C274.275 181.783 267.274 181.143 267.274 181.143C267.039 181.068 266.822 180.946 266.635 180.785C266.449 180.624 266.297 180.427 266.19 180.206C266.082 179.985 266.021 179.744 266.01 179.499C265.998 179.254 266.037 179.008 266.124 178.779C266.228 178.503 266.397 178.257 266.618 178.062C266.838 177.866 267.103 177.727 267.39 177.655L270.493 176.884L275.367 168.359L280.678 167.691L280.812 167.909C281.839 169.555 282.501 171.4 282.754 173.32C283.007 175.241 282.845 177.193 282.28 179.046C281.838 180.454 281.237 180.499 280.51 180.829Z" fill="#2F2E41"/>
<path d="M245.498 180.829C244.261 181.39 243.225 177.91 242.182 178.93C239.263 181.783 232.262 181.143 232.262 181.143C232.027 181.068 231.81 180.946 231.623 180.785C231.437 180.624 231.286 180.427 231.178 180.206C231.071 179.985 231.009 179.744 230.998 179.499C230.987 179.254 231.026 179.008 231.112 178.779C231.216 178.503 231.385 178.257 231.606 178.062C231.826 177.866 232.091 177.727 232.378 177.655L235.482 176.884L240.355 168.359L245.666 167.691L245.8 167.909C246.827 169.555 247.489 171.4 247.742 173.32C247.995 175.241 247.833 177.193 247.268 179.046C246.826 180.454 246.225 180.499 245.498 180.829Z" fill="#2F2E41"/>
<path d="M268.8 17.4776L266.61 24.4057L247.682 24.0711C247.746 21.6471 248.571 19.3038 250.039 17.3684C251.508 15.433 253.548 14.0023 255.874 13.2761C258.2 12.5498 260.696 12.5643 263.014 13.3176C265.331 14.0709 267.354 15.5252 268.8 17.4776H268.8Z" fill="#2F2E41"/>
<path d="M264.245 84.0519L261.893 77.0331L275.994 72.2423L270.66 38.749C273.919 39.3383 276.852 41.0816 278.918 43.6564C280.984 46.2312 282.042 49.4632 281.897 52.7542L283.721 75.1243L264.245 84.0519Z" fill="#3F3D56"/>
<path d="M230.564 65.1297L215.897 68.267L212.9 53.9141L218.42 46.5414L223.388 45.6002L228.908 51.1688L230.564 65.1297Z" fill="#CCCCCC"/>
<path d="M223.783 65.7555H214.95L213.746 59.8429L212.428 53.3638L214.399 50.5411L218.186 51.7172L222.285 57.366L223.314 63.1217L223.385 63.5316L223.783 65.7555Z" fill="#E6E6E6"/>
<path d="M238.608 62.306L228.436 63.4825L230.249 50.62L234.35 46.9335L237.898 47.7963L240.264 53.2081L238.608 62.306Z" fill="#CCCCCC"/>
<path d="M239.947 54.6966L239.001 59.875L235.927 77.5199L224.098 81.287L223.69 81.066L217.315 77.5983L213.729 59.8358L213.746 59.8429L223.231 63.6385L223.314 63.1217L223.371 62.7475L224.098 58.1501L227.33 54.6966L238.134 52.1093L239.947 54.6966Z" fill="#E6E6E6"/>
<path d="M232.457 54.1492C233.851 54.1492 234.98 53.0256 234.98 51.6394C234.98 50.2533 233.851 49.1296 232.457 49.1296C231.063 49.1296 229.934 50.2533 229.934 51.6394C229.934 53.0256 231.063 54.1492 232.457 54.1492Z" fill="#E6E6E6"/>
<path d="M226.253 52.9348L220.496 53.9543L220.524 54.1088L226.28 53.0892L226.253 52.9348Z" fill="white"/>
<path d="M223.69 81.066L217.315 77.5983L213.728 59.8358L213.746 59.8429L212.428 53.3638L214.399 50.5411L218.186 51.7172L222.285 57.366L223.314 63.1217L223.371 62.7475L223.385 63.5316L223.425 65.7555L223.69 81.066Z" fill="#F2F2F2"/>
<path d="M217.392 77.6204L217.239 77.5798L220.384 65.8524L216.783 61.1313L216.909 61.0365L220.556 65.8185L217.392 77.6204Z" fill="#CCCCCC"/>
<path d="M219.167 70.9253L219.025 70.9934L224.027 81.3204L224.169 81.2524L219.167 70.9253Z" fill="#CCCCCC"/>
<path opacity="0.2" d="M239.325 58.8003L238.733 62.0544L238.703 62.0575L236.052 77.27L224.223 81.0347L224.152 81.0684L224.105 80.9704L217.442 77.3485L217.365 77.3281L217.406 77.1743L213.854 59.5838L213.872 59.5909L213.479 57.6599L213.773 57.2387L214.682 55.9368L218.467 57.1132L222.567 62.7603L222.627 63.096L223.058 65.5054L223.231 66.4732L223.596 68.5179L223.943 66.321L224.067 65.5305L224.381 63.5446L227.614 60.0936L229.052 59.7493L230.053 59.5093L231.429 59.1799C231.002 58.9218 230.662 58.5434 230.451 58.0926C230.241 57.6419 230.17 57.1391 230.247 56.648C230.324 56.157 230.546 55.6997 230.884 55.3342C231.223 54.9688 231.663 54.7115 232.149 54.5951C232.635 54.4787 233.144 54.5083 233.613 54.6803C234.082 54.8523 234.489 55.1588 234.782 55.5611C235.076 55.9634 235.243 56.4433 235.262 56.9399C235.28 57.4366 235.151 57.9276 234.889 58.3509L238.418 57.5054L239.287 58.7469L239.325 58.8003Z" fill="black"/>
<path d="M224.066 71.9367H215.234L212.711 59.5446L214.682 56.7209L218.467 57.8974L222.568 63.5444L224.066 71.9367Z" fill="#E6E6E6"/>
<path d="M236.21 83.7015L224.381 87.4661L217.6 83.7799L214.012 66.0153L223.514 69.819L224.381 64.3288L227.614 60.8779L238.418 58.2898L240.232 60.8779L239.285 66.0545L236.21 83.7015Z" fill="#E6E6E6"/>
<path d="M232.74 60.3289C234.134 60.3289 235.264 59.2052 235.264 57.8191C235.264 56.433 234.134 55.3093 232.74 55.3093C231.347 55.3093 230.217 56.433 230.217 57.8191C230.217 59.2052 231.347 60.3289 232.74 60.3289Z" fill="#E6E6E6"/>
<path d="M223.979 87.1247L217.604 83.657L214.018 65.8945L214.035 65.9017L212.717 59.4225L214.688 56.5999L218.475 57.7759L222.574 63.4247L223.603 69.1804L223.66 68.8062L223.674 69.5903L223.714 71.8142L223.979 87.1247Z" fill="#F2F2F2"/>
<path d="M217.675 83.7999L217.523 83.7596L220.667 72.0318L217.066 67.3107L217.192 67.2159L220.84 71.9983L217.675 83.7999Z" fill="#CCCCCC"/>
<path d="M219.451 77.105L219.309 77.1731L224.31 87.5001L224.452 87.4321L219.451 77.105Z" fill="#CCCCCC"/>
<path d="M323.011 165.755L308.344 168.893L305.348 154.54L310.868 147.167L315.835 146.226L321.355 151.794L323.011 165.755Z" fill="#CCCCCC"/>
<path d="M316.228 166.381H307.396L306.192 160.468L304.873 153.989L306.844 151.167L310.631 152.343L314.73 157.992L315.759 163.747L315.831 164.157L316.228 166.381Z" fill="#E6E6E6"/>
<path d="M331.053 162.932L320.881 164.108L322.695 151.245L326.795 147.559L330.343 148.422L332.709 153.834L331.053 162.932Z" fill="#CCCCCC"/>
<path d="M332.392 155.322L331.446 160.5L328.372 178.145L316.544 181.912L316.135 181.691L309.761 178.224L306.174 160.461L306.192 160.468L315.677 164.264L315.759 163.747L315.816 163.373L316.544 158.776L319.776 155.322L330.579 152.735L332.392 155.322Z" fill="#E6E6E6"/>
<path d="M324.902 154.775C326.296 154.775 327.426 153.651 327.426 152.265C327.426 150.879 326.296 149.755 324.902 149.755C323.509 149.755 322.379 150.879 322.379 152.265C322.379 153.651 323.509 154.775 324.902 154.775Z" fill="#E6E6E6"/>
<path d="M318.7 153.56L312.943 154.58L312.971 154.734L318.727 153.715L318.7 153.56Z" fill="white"/>
<path d="M316.135 181.691L309.761 178.224L306.174 160.461L306.192 160.468L304.873 153.989L306.844 151.167L310.631 152.343L314.73 157.992L315.759 163.747L315.816 163.373L315.831 164.157L315.87 166.381L316.135 181.691Z" fill="#F2F2F2"/>
<path d="M309.839 178.246L309.687 178.206L312.831 166.478L309.23 161.757L309.356 161.662L313.003 166.444L309.839 178.246Z" fill="#CCCCCC"/>
<path d="M311.615 171.551L311.473 171.619L316.474 181.946L316.616 181.878L311.615 171.551Z" fill="#CCCCCC"/>
<path d="M351.993 180.544H342.318L340.885 162.012H353.426L351.993 180.544Z" fill="#E6E6E6"/>
<path d="M353.605 169.496H340.705V172.347H353.605V169.496Z" fill="#F2F2F2"/>
<path d="M356.921 163.342L354.858 162.738L354.832 161.987L345.666 159.302L345.234 159.918L343.172 159.314L341.877 161.164L357.001 165.595L356.921 163.342Z" fill="#CCCCCC"/>
<path d="M53.5058 157.154L53.4965 157.216L53.4711 157.395L50.8457 176.134L34.7699 182L34.518 181.88L25.5177 177.629L20.8638 159.868L20.5449 158.649L20.642 158.612L40.5525 151.172L53.494 157.147L53.5058 157.154Z" fill="#17181C"/>
<path d="M34.518 181.88L25.5177 177.629L20.5449 158.649L20.642 158.612L33.6136 164.055L34.518 181.88Z" fill="#17181C"/>
<path opacity="0.2" d="M34.7437 181.663L27.8976 168.615L28.7769 164.916L24.6358 160.065L24.2832 160.363L28.2728 165.036L25.2926 177.576L25.743 177.682L27.7349 169.3L34.3334 181.877L34.7437 181.663Z" fill="black"/>
<path d="M53.5058 157.384L53.4711 157.395L33.6136 164.285L20.8638 159.868L20.5449 158.649L20.642 158.612L40.5525 151.172L53.494 157.147L53.4965 157.216L53.5058 157.384Z" fill="#3F3D56"/>
<path d="M33.962 164.631L29.9141 161.525L30.8392 158.074L42.4044 153.933L50.2689 154.393L53.3916 157.039L53.6228 157.729L33.962 164.631Z" fill="#17181C"/>
<path d="M20.7773 158.649L29.9138 158.304L34.8633 156.633L42.5801 153.933L44.0235 151.862L40.4223 151.222L20.7773 158.649Z" fill="#17181C"/>
<path d="M38.9807 154.947L34.2168 156.61L34.3699 157.044L39.1338 155.381L38.9807 154.947Z" fill="#CCCCCC"/>
<path d="M12.899 180.97H3.2243L1.79102 162.438H14.3323L12.899 180.97Z" fill="#17181C"/>
<path d="M14.5129 169.922H1.61328V172.773H14.5129V169.922Z" fill="#E6E6E6"/>
<path d="M15.0495 161.369H12.8996L12.6606 160.656H3.10557L2.86657 161.369H0.716643L0 163.507H15.7661L15.0495 161.369Z" fill="#3F3D56"/>
<path d="M289.646 180.752H72.4688V181.464H289.646V180.752Z" fill="#3F3D56"/>
</g>
<defs>
<clipPath id="clip0_101_3887">
<rect width="357" height="182" fill="white"/>
</clipPath>
</defs>
</svg>
