<svg width="389" height="163" viewBox="0 0 389 163" fill="none" xmlns="http://www.w3.org/2000/svg">
<g clip-path="url(#clip0_101_3818)">
<path d="M293.127 70.1036V39.7506C293.127 36.7241 295.587 34.2621 298.612 34.2621H318.455C321.479 34.2621 323.94 36.7241 323.94 39.7506V70.1036C323.94 73.1301 321.479 75.5921 318.455 75.5921H298.612C295.587 75.5921 293.127 73.1301 293.127 70.1036Z" fill="#17181C"/>
<path d="M303.288 47.3827H313.777V44.7586H303.288V47.3827Z" fill="#3F3D56"/>
<path d="M305.912 42.7905H311.156V34.2621H305.912V42.7905Z" fill="#3F3D56"/>
<path d="M305.912 75.592H311.156V67.0636H305.912V75.592Z" fill="#3F3D56"/>
<path d="M279.032 71.3303H248.7C245.675 71.3303 243.215 68.8683 243.215 65.8418V45.9853C243.215 42.9589 245.675 40.4968 248.7 40.4968H279.032C282.057 40.4968 284.517 42.9589 284.517 45.9853V65.8418C284.517 68.8683 282.057 71.3303 279.032 71.3303Z" fill="#17181C"/>
<path d="M269.767 44.761H259.277V47.3851H269.767V44.761Z" fill="#3F3D56"/>
<path d="M251.738 58.5377V53.2894H243.216V58.5377H251.738Z" fill="#3F3D56"/>
<path d="M284.518 58.5377V53.2894H275.995V58.5377H284.518Z" fill="#3F3D56"/>
<path d="M32.9802 128.089L27.9165 98.531C25.6664 85.3967 35.381 73.2426 48.6801 72.5534L120.868 68.812L138.097 40.3977C140.381 36.6308 144.464 34.3304 148.867 34.3304H200.737C204.814 34.3304 208.259 37.356 208.788 41.4014L210.105 64.1372L339.42 64.5246L355.688 118.172L340.588 117.435L341.363 133.707L321.617 134.482L315.034 115.857C313.795 112.35 308.364 108.396 302.719 105.088C290.063 97.6707 273.804 100.051 264.227 111.166C261.967 113.788 260.388 116.52 259.946 119.082L256.959 136.419L112.157 134.095L93.1791 107.53C87.5723 101.424 61.1044 99.1814 58.7208 107.53L44.4018 128.67L32.9802 128.089H32.9802Z" fill="#E6E6E6"/>
<path d="M190.364 51.6201L194.624 71.7178L140.42 72.8801L151.868 48.2838C152.907 46.0525 155.186 44.6672 157.644 44.7741L183.618 45.9042C186.906 46.0472 189.681 48.3984 190.364 51.6201V51.6201Z" fill="white"/>
<path d="M133.064 71.3303L143.905 43.4351L141.067 40.595L123.385 67.456L126.978 72.8801L133.064 71.3303Z" fill="white"/>
<path d="M288.319 161.99C302.432 161.99 313.872 150.541 313.872 136.419C313.872 122.297 302.432 110.849 288.319 110.849C274.206 110.849 262.766 122.297 262.766 136.419C262.766 150.541 274.206 161.99 288.319 161.99Z" fill="#3F3D56"/>
<path d="M270.703 136.419C270.703 126.699 278.606 118.791 288.319 118.791C298.033 118.791 305.936 126.699 305.936 136.419C305.936 146.139 298.033 154.047 288.319 154.047C278.606 154.047 270.703 146.139 270.703 136.419ZM271.09 136.419C271.09 145.926 278.819 153.66 288.319 153.66C297.82 153.66 305.549 145.926 305.549 136.419C305.549 126.913 297.82 119.178 288.319 119.178C278.819 119.178 271.09 126.913 271.09 136.419Z" fill="white"/>
<path d="M273.221 136.419C273.221 144.764 279.981 151.529 288.32 151.529C296.66 151.529 303.42 144.764 303.42 136.419C303.42 128.074 296.66 121.309 288.32 121.309C279.981 121.309 273.221 128.074 273.221 136.419ZM298.136 132.801L295.46 134.546L294.432 132.967L298.136 132.801ZM294.063 141.675L294.775 139.931L297.019 142.884L294.063 141.675ZM287.212 147.655L289.095 144.459V147.655H287.212ZM287.212 129.154L289.095 125.958V129.154H287.212ZM278.848 142.884L281.091 139.931L281.804 141.675L278.848 142.884ZM277.731 132.801L281.434 132.967L280.406 134.546L277.731 132.801Z" fill="#E6E6E6"/>
<path d="M73.8268 161.99C87.9395 161.99 99.3801 150.541 99.3801 136.419C99.3801 122.297 87.9395 110.849 73.8268 110.849C59.7141 110.849 48.2734 122.297 48.2734 136.419C48.2734 150.541 59.7141 161.99 73.8268 161.99Z" fill="#3F3D56"/>
<path d="M56.2109 136.419C56.2109 126.699 64.1136 118.791 73.8273 118.791C83.541 118.791 91.4436 126.699 91.4436 136.419C91.4436 146.139 83.541 154.047 73.8273 154.047C64.1136 154.047 56.2109 146.139 56.2109 136.419ZM56.5981 136.419C56.5981 145.926 64.327 153.66 73.8273 153.66C83.3275 153.66 91.0564 145.926 91.0564 136.419C91.0564 126.913 83.3275 119.178 73.8273 119.178C64.327 119.178 56.5981 126.913 56.5981 136.419Z" fill="white"/>
<path d="M58.7266 136.419C58.7266 144.764 65.4869 151.529 73.8263 151.529C82.1656 151.529 88.926 144.764 88.926 136.419C88.926 128.074 82.1656 121.309 73.8263 121.309C65.4869 121.309 58.7266 128.074 58.7266 136.419ZM83.6416 132.801L80.9662 134.546L79.9384 132.967L83.6416 132.801ZM79.5686 141.675L80.2811 139.931L82.5245 142.884L79.5686 141.675ZM72.7181 147.655L74.6006 144.459V147.655H72.7181ZM72.7181 129.154L74.6006 125.958V129.154H72.7181ZM64.3537 142.884L66.5971 139.931L67.3096 141.675L64.3537 142.884ZM63.2366 132.801L66.9398 132.967L65.912 134.546L63.2366 132.801Z" fill="#E6E6E6"/>
<path d="M180.493 81.9847H195.205V78.8853H180.493V81.9847Z" fill="#3F3D56"/>
<path d="M387.863 142.829C387.726 142.409 386.687 142.594 386.587 142.218C386.488 141.844 387.485 141.53 388.25 140.476C388.388 140.285 389.257 139.087 388.924 138.583C388.292 137.627 383.895 140.007 382.84 138.672C382.608 138.379 382.513 137.875 381.823 136.939C381.548 136.567 381.372 136.387 381.162 136.392C380.863 136.4 380.756 136.773 380.287 137.45C379.583 138.466 379.33 138.338 378.866 139.17C378.522 139.788 378.481 140.182 378.233 140.206C377.882 140.239 377.737 139.47 377.307 139.44C376.87 139.409 376.431 140.169 376.214 140.763C375.806 141.877 376.059 142.728 376.115 143.577C376.176 144.499 376.033 145.848 375.032 147.581L365.588 162.637C367.616 159.568 373.373 151.198 375.693 148.128C376.362 147.242 377.082 146.352 378.189 146.184C379.256 146.023 380.553 146.551 382.364 146.52C382.576 146.517 383.164 146.499 383.307 146.187C383.426 145.929 383.132 145.705 383.239 145.462C383.382 145.137 384.027 145.276 384.907 145.06C385.527 144.908 385.948 144.656 386.31 144.439C386.419 144.374 388.046 143.388 387.863 142.829H387.863Z" fill="#F2F2F2"/>
<path d="M363.129 146.344C362.884 146.29 362.674 146.854 362.461 146.795C362.249 146.736 362.383 146.155 362.087 145.475C362.033 145.353 361.696 144.58 361.353 144.598C360.702 144.633 360.6 147.479 359.641 147.612C359.43 147.641 359.156 147.543 358.497 147.612C358.236 147.639 358.097 147.674 358.038 147.778C357.956 147.927 358.109 148.088 358.305 148.513C358.6 149.152 358.464 149.24 358.739 149.708C358.942 150.055 359.124 150.189 359.064 150.317C358.979 150.499 358.56 150.349 358.421 150.551C358.28 150.757 358.526 151.192 358.755 151.469C359.183 151.991 359.674 152.113 360.106 152.33C360.576 152.566 361.197 153.026 361.758 154.018L366.418 163C365.497 161.118 363.053 155.876 362.217 153.851C361.975 153.266 361.746 152.656 361.984 152.064C362.212 151.493 362.846 151.009 363.353 150.11C363.412 150.005 363.574 149.711 363.462 149.551C363.369 149.418 363.174 149.498 363.086 149.375C362.968 149.211 363.223 148.934 363.37 148.44C363.475 148.092 363.473 147.812 363.471 147.572C363.47 147.499 363.456 146.416 363.129 146.344V146.344V146.344Z" fill="#F2F2F2"/>
<path d="M367.777 148.536L367.924 147.183L368.014 147.098C368.429 146.705 368.689 146.288 368.787 145.859C368.802 145.791 368.814 145.722 368.827 145.652C368.875 145.374 368.936 145.028 369.203 144.669C369.353 144.469 369.748 144.016 370.157 144.174C370.267 144.216 370.341 144.287 370.393 144.363C370.406 144.35 370.419 144.337 370.433 144.322C370.61 144.151 370.733 144.088 370.852 144.028C370.943 143.981 371.037 143.933 371.197 143.805C371.267 143.749 371.323 143.699 371.37 143.657C371.513 143.529 371.696 143.379 371.947 143.438C372.213 143.511 372.305 143.765 372.365 143.933C372.473 144.233 372.506 144.439 372.528 144.576C372.536 144.626 372.546 144.682 372.553 144.7C372.611 144.847 373.342 144.885 373.617 144.901C374.235 144.935 374.77 144.964 374.898 145.387C374.991 145.69 374.798 146.021 374.31 146.396C374.158 146.512 374.006 146.593 373.874 146.653C373.955 146.73 374.02 146.835 374.024 146.977C374.033 147.315 373.686 147.575 372.994 147.75C372.822 147.793 372.591 147.852 372.288 147.837C372.146 147.83 372.021 147.808 371.915 147.788C371.899 147.848 371.87 147.911 371.817 147.971C371.663 148.148 371.414 148.193 371.077 148.093C370.704 147.989 370.409 147.848 370.15 147.724C369.923 147.615 369.727 147.523 369.563 147.498C369.257 147.455 368.972 147.644 368.632 147.895L367.777 148.536L367.777 148.536Z" fill="#F2F2F2"/>
<path d="M370.216 140.828L368.87 141.029L368.766 140.964C368.28 140.661 367.812 140.515 367.373 140.53C367.303 140.532 367.233 140.538 367.162 140.544C366.881 140.567 366.531 140.597 366.116 140.429C365.885 140.335 365.347 140.067 365.396 139.631C365.408 139.514 365.458 139.424 365.519 139.355C365.502 139.346 365.486 139.336 365.469 139.326C365.259 139.199 365.167 139.095 365.078 138.996C365.01 138.919 364.94 138.84 364.776 138.718C364.704 138.664 364.641 138.623 364.588 138.588C364.428 138.482 364.237 138.343 364.23 138.085C364.233 137.809 364.456 137.656 364.603 137.555C364.865 137.374 365.056 137.29 365.183 137.234C365.229 137.213 365.281 137.19 365.297 137.179C365.424 137.085 365.275 136.368 365.221 136.098C365.097 135.491 364.989 134.966 365.366 134.734C365.635 134.568 366.004 134.67 366.49 135.048C366.641 135.165 366.758 135.292 366.849 135.405C366.903 135.306 366.988 135.217 367.125 135.177C367.449 135.083 367.788 135.352 368.132 135.978C368.218 136.133 368.333 136.342 368.396 136.639C368.425 136.779 368.436 136.905 368.443 137.013C368.506 137.013 368.574 137.025 368.645 137.061C368.855 137.165 368.961 137.395 368.951 137.747C368.945 138.134 368.883 138.455 368.829 138.738C368.782 138.985 368.742 139.198 368.759 139.363C368.795 139.67 369.05 139.898 369.379 140.164L370.216 140.828H370.216L370.216 140.828Z" fill="#F2F2F2"/>
<path d="M370.396 136.785L370.543 135.432L370.633 135.347C371.048 134.954 371.308 134.538 371.406 134.109C371.422 134.041 371.434 133.972 371.446 133.902C371.494 133.623 371.555 133.278 371.822 132.918C371.972 132.718 372.368 132.266 372.776 132.424C372.886 132.465 372.96 132.537 373.012 132.612C373.025 132.599 373.038 132.586 373.052 132.572C373.229 132.4 373.352 132.338 373.471 132.277C373.562 132.231 373.656 132.183 373.816 132.055C373.886 131.999 373.942 131.949 373.989 131.906C374.132 131.778 374.316 131.628 374.567 131.688C374.833 131.761 374.924 132.014 374.984 132.183C375.092 132.482 375.126 132.689 375.148 132.825C375.156 132.875 375.165 132.932 375.172 132.95C375.23 133.097 375.961 133.135 376.236 133.151C376.854 133.184 377.389 133.213 377.517 133.637C377.61 133.94 377.417 134.27 376.929 134.645C376.777 134.762 376.625 134.842 376.493 134.902C376.574 134.979 376.639 135.084 376.643 135.227C376.652 135.565 376.306 135.824 375.614 135.999C375.442 136.043 375.21 136.101 374.908 136.086C374.765 136.079 374.64 136.058 374.534 136.037C374.518 136.098 374.489 136.161 374.436 136.221C374.282 136.397 374.034 136.442 373.696 136.343C373.323 136.239 373.029 136.097 372.769 135.973C372.542 135.865 372.346 135.772 372.182 135.747C371.876 135.704 371.592 135.893 371.251 136.144L370.397 136.785L370.396 136.785Z" fill="#F2F2F2"/>
<path d="M366.034 162.714L365.797 162.479L365.801 162.145L365.797 162.479L365.466 162.444C365.468 162.413 365.465 162.34 365.463 162.227C365.45 161.604 365.411 159.71 365.674 156.799C365.858 154.766 366.166 152.704 366.589 150.666C367.012 148.626 367.451 147.108 367.804 145.888C368.071 144.968 368.339 144.095 368.602 143.244C369.302 140.973 369.963 138.827 370.373 136.379C370.464 135.833 370.655 134.696 370.265 133.353C370.039 132.575 369.652 131.842 369.114 131.176L369.635 130.755C370.228 131.491 370.656 132.303 370.907 133.167C371.339 134.656 371.132 135.895 371.032 136.49C370.615 138.981 369.948 141.148 369.24 143.441C368.979 144.288 368.711 145.157 368.446 146.074C368.097 147.283 367.661 148.788 367.243 150.802C366.826 152.815 366.522 154.852 366.34 156.859C366.08 159.733 366.119 161.6 366.131 162.213C366.138 162.54 366.14 162.609 366.034 162.714V162.714Z" fill="#F2F2F2"/>
<path d="M367.688 131.946C367.661 131.94 367.634 131.933 367.607 131.925C367.058 131.771 366.618 131.324 366.298 130.595C366.149 130.252 366.113 129.892 366.043 129.173C366.032 129.062 365.983 128.501 366.043 127.757C366.082 127.272 366.134 127.077 366.266 126.923C366.413 126.753 366.611 126.655 366.82 126.606C366.825 126.541 366.846 126.479 366.888 126.419C367.06 126.172 367.348 126.273 367.504 126.326C367.582 126.354 367.68 126.39 367.791 126.409C367.964 126.439 368.067 126.408 368.224 126.363C368.374 126.319 368.56 126.265 368.817 126.27C369.325 126.277 369.701 126.505 369.825 126.581C370.479 126.973 370.704 127.6 370.965 128.325C371.017 128.471 371.189 128.996 371.229 129.673C371.258 130.161 371.194 130.361 371.121 130.504C370.971 130.798 370.742 130.934 370.172 131.221C369.578 131.521 369.28 131.671 369.035 131.749C368.466 131.927 368.108 132.04 367.688 131.946V131.946V131.946Z" fill="#F2F2F2"/>
<path d="M0 162.133C0 162.389 0.358242 162.594 0.804353 162.594H384.79C385.236 162.594 385.594 162.389 385.594 162.133C385.594 161.877 385.236 161.672 384.79 161.672H0.804353C0.358242 161.672 0 161.877 0 162.133Z" fill="#CCCCCC"/>
<path d="M195.112 159.222L200.488 159.222L203.045 138.472L195.111 138.473L195.112 159.222Z" fill="#FFB6B6"/>
<path d="M213.531 159.1C213.698 159.382 213.786 160.293 213.786 160.621C213.786 161.629 212.97 162.447 211.962 162.447L195.314 162.447C194.626 162.447 194.069 161.889 194.069 161.201V160.507C194.069 160.507 193.246 158.423 194.941 155.853C194.941 155.853 197.048 157.865 200.197 154.714L201.126 153.031L207.848 157.95L211.574 158.409C212.389 158.509 213.111 158.394 213.531 159.1H213.531L213.531 159.1Z" fill="#2F2E41"/>
<path d="M170.96 159.222L176.336 159.222L178.893 138.472L170.959 138.473L170.96 159.222Z" fill="#FFB6B6"/>
<path d="M189.378 159.1C189.546 159.382 189.634 160.293 189.634 160.621C189.634 161.629 188.817 162.447 187.81 162.447L171.161 162.447C170.474 162.447 169.917 161.889 169.917 161.201V160.507C169.917 160.507 169.093 158.423 170.789 155.853C170.789 155.853 172.896 157.865 176.045 154.714L176.974 153.031L183.695 157.95L187.421 158.409C188.236 158.509 188.959 158.394 189.378 159.1H189.378L189.378 159.1Z" fill="#2F2E41"/>
<path d="M194.261 17.5412L195.281 27.0727L183.375 26.0515L185.416 17.2008L194.261 17.5412Z" fill="#FFB6B6"/>
<path opacity="0.1" d="M194.261 17.5412L195.281 27.0727L183.375 26.0515L185.416 17.2008L194.261 17.5412Z" fill="black"/>
<path d="M190.01 18.7327C194.331 18.7327 197.834 15.2273 197.834 10.9033C197.834 6.5792 194.331 3.07385 190.01 3.07385C185.689 3.07385 182.186 6.5792 182.186 10.9033C182.186 15.2273 185.689 18.7327 190.01 18.7327Z" fill="#FFB6B6"/>
<path d="M195.112 23.158L208.209 30.8172L203.918 51.5822L206.848 79.4958L204.807 147.918L192.22 146.557L190.519 88.3465L180.654 148.599H168.432L170.449 83.5807L176.572 56.0075L172.83 26.0515L184.226 22.4772L195.112 23.158Z" fill="#2F2E41"/>
<path d="M195.622 13.1159C195.622 13.1159 196.302 10.7331 197.833 10.9033C199.364 11.0735 199.704 9.71183 199.364 9.03101C199.024 8.35019 198.343 4.94609 198.343 4.94609C198.343 4.94609 198.683 2.56322 196.642 2.22281C194.601 1.8824 193.921 1.54199 193.581 0.861176C193.241 0.180355 188.138 -0.500462 186.437 0.520766C184.736 1.54199 183.375 3.50136 182.185 4.05352C180.994 4.60568 179.974 5.62691 180.654 7.32896C181.334 9.03101 182.321 12.3599 182.321 12.3599C182.321 12.3599 184.056 11.7543 184.396 12.7755C184.736 13.7967 183.375 12.4351 185.076 9.71183C186.777 6.98855 186.777 4.26527 189.499 5.28651C192.22 6.30773 195.282 5.96733 194.941 8.00978C194.601 10.0522 195.622 13.1159 195.622 13.1159L195.622 13.1159Z" fill="#2F2E41"/>
<path d="M201.454 73.3893C199.817 75.1242 199.384 77.376 200.488 78.4185C201.591 79.4611 203.813 78.8997 205.451 77.164C206.114 76.4796 206.605 75.6461 206.88 74.7332L213.725 67.2947L210.169 64.1548L203.798 71.8212C202.903 72.1491 202.099 72.6868 201.454 73.3893Z" fill="#FFB6B6"/>
<path d="M208.071 30.647L219.598 50.2988L221.305 59.2703L210.205 73.3684L205.509 67.3874L211.059 59.2703L202.094 43.4634L208.071 30.647Z" fill="#2F2E41"/>
<path d="M175.662 71.5595V48.3889C175.662 44.8573 178.533 41.9844 182.062 41.9844H217.457C220.987 41.9844 223.858 44.8573 223.858 48.3889V71.5595C223.858 75.0911 220.987 77.964 217.457 77.964H182.062C178.533 77.964 175.662 75.0911 175.662 71.5595Z" fill="#17181C"/>
<path d="M192.875 56.6088H205.115V53.5467H192.875V56.6088Z" fill="#3F3D56"/>
<path d="M204.111 77.7587V71.6345H194.166V77.7587H204.111Z" fill="#3F3D56"/>
<path d="M204.578 48.3139V42.1897H194.633V48.3139H204.578Z" fill="#3F3D56"/>
<path d="M179.244 68.9639C180.881 70.6988 181.314 72.9505 180.21 73.9931C179.107 75.0357 176.885 74.4743 175.247 72.7385C174.584 72.0542 174.093 71.2207 173.818 70.3078L166.973 62.8693L170.529 59.7294L176.9 67.3958C177.795 67.7237 178.599 68.2614 179.244 68.9639Z" fill="#FFB6B6"/>
<path d="M172.627 26.2217L161.1 45.8735L159.393 54.845L170.493 68.9431L175.189 62.9621L169.639 54.845L178.604 39.0381L172.627 26.2217Z" fill="#2F2E41"/>
<path d="M29.2954 119.928C35.0688 119.928 39.7491 115.851 39.7491 110.823C39.7491 105.795 35.0688 101.718 29.2954 101.718C23.5221 101.718 18.8418 105.795 18.8418 110.823C18.8418 115.851 23.5221 119.928 29.2954 119.928Z" fill="#E6E6E6"/>
</g>
<defs>
<clipPath id="clip0_101_3818">
<rect width="389" height="163" fill="white"/>
</clipPath>
</defs>
</svg>
