<svg width="355" height="197" viewBox="0 0 355 197" fill="none" xmlns="http://www.w3.org/2000/svg">
<g clip-path="url(#clip0_101_3737)">
<path d="M93.0794 61.7124C104.308 61.7124 113.411 52.6055 113.411 41.3715C113.411 30.1375 104.308 21.0305 93.0794 21.0305C81.8507 21.0305 72.748 30.1375 72.748 41.3715C72.748 52.6055 81.8507 61.7124 93.0794 61.7124Z" fill="#FF6584"/>
<path d="M156.835 104.055H57.0954C56.9705 104.057 56.8457 104.047 56.7227 104.025L103.895 22.2777C104.183 21.7686 104.601 21.3451 105.106 21.0504C105.611 20.7557 106.185 20.6005 106.77 20.6005C107.354 20.6005 107.928 20.7557 108.434 21.0504C108.939 21.3451 109.356 21.7686 109.644 22.2777L141.303 77.1368L142.82 79.7618L156.835 104.055Z" fill="#3F3D56"/>
<path opacity="0.2" d="M156.835 104.055H122.781L139.498 79.7615L140.701 78.0116L141.303 77.1368L142.82 79.7615L156.835 104.055Z" fill="black"/>
<path d="M212.37 104.055H126.104L142.82 79.7617L144.023 78.0117L165.807 46.3531C167.235 44.2782 170.67 44.149 172.35 45.9617C172.462 46.0854 172.567 46.2161 172.663 46.3531L212.37 104.055Z" fill="#3F3D56"/>
<path d="M237.693 90.6063C241.077 90.6063 243.819 87.8621 243.819 84.4769C243.819 81.0918 241.077 78.3475 237.693 78.3475C234.309 78.3475 231.566 81.0918 231.566 84.4769C231.566 87.8621 234.309 90.6063 237.693 90.6063Z" fill="#17181C"/>
<path d="M238.284 102.939H237.029L237.601 83.5538L238.284 102.939Z" fill="#3F3D56"/>
<path d="M237.711 87.2279L239.058 85.363L237.692 87.6895L237.545 87.4311L237.711 87.2279Z" fill="#3F3D56"/>
<path d="M237.564 89.1108L236.217 87.2463L237.583 89.5724L237.73 89.314L237.564 89.1108Z" fill="#3F3D56"/>
<path d="M293.892 90.6063C297.276 90.6063 300.019 87.8621 300.019 84.4769C300.019 81.0918 297.276 78.3475 293.892 78.3475C290.509 78.3475 287.766 81.0918 287.766 84.4769C287.766 87.8621 290.509 90.6063 293.892 90.6063Z" fill="#17181C"/>
<path d="M294.483 102.939H293.229L293.801 83.5538L294.483 102.939Z" fill="#3F3D56"/>
<path d="M293.91 87.2279L295.258 85.363L293.892 87.6895L293.744 87.4311L293.91 87.2279Z" fill="#3F3D56"/>
<path d="M293.763 89.1108L292.416 87.2463L293.782 89.5724L293.929 89.314L293.763 89.1108Z" fill="#3F3D56"/>
<path d="M255.441 84.7248C260.438 84.7248 264.489 80.6718 264.489 75.6721C264.489 70.6725 260.438 66.6195 255.441 66.6195C250.444 66.6195 246.393 70.6725 246.393 75.6721C246.393 80.6718 250.444 84.7248 255.441 84.7248Z" fill="#17181C"/>
<path d="M256.312 102.939H254.459L255.304 74.3087L256.312 102.939Z" fill="#3F3D56"/>
<path d="M255.468 79.7346L257.458 76.981L255.441 80.4166L255.223 80.0347L255.468 79.7346Z" fill="#3F3D56"/>
<path d="M255.249 82.516L253.26 79.7623L255.276 83.1976L255.495 82.8161L255.249 82.516Z" fill="#3F3D56"/>
<path d="M277.507 84.7248C282.505 84.7248 286.556 80.6718 286.556 75.6721C286.556 70.6725 282.505 66.6195 277.507 66.6195C272.51 66.6195 268.459 70.6725 268.459 75.6721C268.459 80.6718 272.51 84.7248 277.507 84.7248Z" fill="#17181C"/>
<path d="M278.379 102.939H276.525L277.37 74.3087L278.379 102.939Z" fill="#3F3D56"/>
<path d="M277.534 79.7346L279.524 76.981L277.507 80.4166L277.289 80.0347L277.534 79.7346Z" fill="#3F3D56"/>
<path d="M277.316 82.516L275.326 79.7623L277.343 83.1976L277.561 82.8161L277.316 82.516Z" fill="#3F3D56"/>
<path d="M220.273 84.7248C225.27 84.7248 229.321 80.6718 229.321 75.6721C229.321 70.6725 225.27 66.6195 220.273 66.6195C215.276 66.6195 211.225 70.6725 211.225 75.6721C211.225 80.6718 215.276 84.7248 220.273 84.7248Z" fill="#17181C"/>
<path d="M221.144 102.939H219.291L220.136 74.3087L221.144 102.939Z" fill="#3F3D56"/>
<path d="M220.3 79.7346L222.289 76.981L220.273 80.4166L220.055 80.0347L220.3 79.7346Z" fill="#3F3D56"/>
<path d="M220.082 82.516L218.092 79.7623L220.109 83.1976L220.327 82.8161L220.082 82.516Z" fill="#3F3D56"/>
<path d="M327.324 197H32.0354C28.315 197 24.631 196.267 21.1938 194.843C17.7566 193.418 14.6335 191.33 12.0028 188.698C9.37212 186.066 7.28532 182.942 5.86159 179.503C4.43786 176.064 3.70508 172.379 3.70508 168.656C3.70508 164.934 4.43786 161.249 5.86159 157.81C7.28532 154.371 9.37212 151.246 12.0028 148.614C14.6335 145.983 17.7566 143.895 21.1938 142.47C24.631 141.046 28.315 140.313 32.0354 140.313H326.67C329.56 140.313 332.331 139.164 334.375 137.12C336.418 135.075 337.566 132.303 337.566 129.411C337.566 126.52 336.418 123.747 334.375 121.703C332.331 119.659 329.56 118.51 326.67 118.51H22.2287V101.068H326.67C334.184 101.068 341.39 104.054 346.703 109.37C352.016 114.685 355 121.894 355 129.411C355 136.929 352.016 144.138 346.703 149.453C341.39 154.769 334.184 157.755 326.67 157.755H32.0354C29.1455 157.755 26.374 158.904 24.3305 160.948C22.2871 162.992 21.1391 165.765 21.1391 168.656C21.1391 171.548 22.2871 174.321 24.3305 176.365C26.374 178.409 29.1455 179.558 32.0354 179.558H327.324V197Z" fill="#E6E6E6"/>
<path d="M46.6364 109.353H33.125V110.225H46.6364V109.353Z" fill="white"/>
<path d="M84.9899 109.353H71.4785V110.225H84.9899V109.353Z" fill="white"/>
<path d="M123.345 109.353H109.834V110.225H123.345V109.353Z" fill="white"/>
<path d="M161.701 109.353H148.189V110.225H161.701V109.353Z" fill="white"/>
<path d="M200.054 109.353H186.543V110.225H200.054V109.353Z" fill="white"/>
<path d="M238.41 109.353H224.898V110.225H238.41V109.353Z" fill="white"/>
<path d="M276.765 109.353H263.254V110.225H276.765V109.353Z" fill="white"/>
<path d="M315.119 109.353H301.607V110.225H315.119V109.353Z" fill="white"/>
<path d="M46.6364 148.598H33.125V149.47H46.6364V148.598Z" fill="white"/>
<path d="M84.9899 148.598H71.4785V149.47H84.9899V148.598Z" fill="white"/>
<path d="M123.345 148.598H109.834V149.47H123.345V148.598Z" fill="white"/>
<path d="M161.701 148.598H148.189V149.47H161.701V148.598Z" fill="white"/>
<path d="M200.054 148.598H186.543V149.47H200.054V148.598Z" fill="white"/>
<path d="M238.41 148.598H224.898V149.47H238.41V148.598Z" fill="white"/>
<path d="M276.765 148.598H263.254V149.47H276.765V148.598Z" fill="white"/>
<path d="M315.119 148.598H301.607V149.47H315.119V148.598Z" fill="white"/>
<path d="M46.6364 187.843H33.125V188.715H46.6364V187.843Z" fill="white"/>
<path d="M84.9899 187.843H71.4785V188.715H84.9899V187.843Z" fill="white"/>
<path d="M123.345 187.843H109.834V188.715H123.345V187.843Z" fill="white"/>
<path d="M161.701 187.843H148.189V188.715H161.701V187.843Z" fill="white"/>
<path d="M200.054 187.843H186.543V188.715H200.054V187.843Z" fill="white"/>
<path d="M238.41 187.843H224.898V188.715H238.41V187.843Z" fill="white"/>
<path d="M276.765 187.843H263.254V188.715H276.765V187.843Z" fill="white"/>
<path d="M315.119 187.843H301.607V188.715H315.119V187.843Z" fill="white"/>
<path d="M237.054 34.6107C238.474 34.6094 239.87 34.9704 241.111 35.6595H233.008C234.245 34.9706 235.638 34.6096 237.054 34.6107Z" fill="#E6E6E6"/>
<path d="M221.33 33.5619C223.701 33.5591 226.015 34.292 227.952 35.6595H214.717C216.652 34.2936 218.962 33.5608 221.33 33.5619Z" fill="#E6E6E6"/>
<path d="M132.257 20.285C132.544 15.1978 134.628 10.378 138.138 6.6851C141.647 2.99219 146.353 0.666179 151.417 0.121769C156.48 -0.422641 161.573 0.849938 165.786 3.71262C170 6.5753 173.06 10.842 174.421 15.752C174.681 15.7427 174.941 15.7322 175.204 15.7322C179.847 15.7331 184.365 17.2379 188.082 20.0216C191.799 22.8052 194.515 26.7181 195.824 31.1748C198.9 29.8223 202.338 29.5289 205.599 30.3405C208.86 31.152 211.76 33.0227 213.845 35.6596H146.81C144.854 35.6651 142.917 35.2758 141.116 34.5149C139.314 33.754 137.684 32.6372 136.324 31.2313C134.964 29.8255 133.901 28.1595 133.2 26.3331C132.498 24.5067 132.172 22.5575 132.242 20.6022C132.246 20.4966 132.251 20.3909 132.257 20.285Z" fill="#E6E6E6"/>
<path d="M241.946 50.3087C240.526 50.3074 239.13 50.6684 237.889 51.3575H245.992C244.755 50.6686 243.362 50.3075 241.946 50.3087Z" fill="#E6E6E6"/>
<path d="M257.671 49.2599C255.3 49.2571 252.986 49.99 251.049 51.3575H264.284C262.349 49.9916 260.039 49.2588 257.671 49.2599Z" fill="#E6E6E6"/>
<path d="M346.743 35.983C346.455 30.8958 344.371 26.076 340.862 22.3831C337.353 18.6902 332.647 16.3642 327.583 15.8198C322.519 15.2754 317.426 16.5479 313.213 19.4106C309 22.2733 305.94 26.54 304.578 31.45C304.318 31.4407 304.058 31.4302 303.795 31.4302C299.152 31.4311 294.635 32.9359 290.918 35.7196C287.201 38.5032 284.485 42.4161 283.176 46.8728C280.099 45.5203 276.661 45.2269 273.4 46.0385C270.139 46.85 267.239 48.7207 265.154 51.3576H332.19C334.146 51.3631 336.082 50.9738 337.884 50.2129C339.686 49.452 341.315 48.3352 342.676 46.9293C344.036 45.5235 345.098 43.8575 345.8 42.0311C346.501 40.2047 346.827 38.2555 346.758 36.3001C346.754 36.1946 346.749 36.0889 346.743 35.983Z" fill="#E6E6E6"/>
<path d="M302.051 184.811L309.842 184.815L309.842 183.578L302.051 183.574L302.051 184.811Z" fill="#3F3D56"/>
<path d="M245.721 183.853L247.328 184.225L308.421 184.258L308.97 182.977C309.928 180.781 310.257 178.361 309.92 175.988C309.657 174.219 308.997 172.462 307.5 171.699L304.789 153.633L270.989 153.573L257.913 164.125C257.913 164.125 251.744 164.014 248.393 168.188C247.184 169.74 246.47 171.62 246.345 173.584L246.212 175.755L245.721 183.853Z" fill="#17181C"/>
<path d="M259.14 191.098C263.306 191.098 266.683 187.719 266.683 183.551C266.683 179.382 263.306 176.003 259.14 176.003C254.973 176.003 251.596 179.382 251.596 183.551C251.596 187.719 254.973 191.098 259.14 191.098Z" fill="#3F3D56"/>
<path d="M259.138 187.523C261.331 187.523 263.109 185.745 263.109 183.551C263.109 181.357 261.331 179.578 259.138 179.578C256.946 179.578 255.168 181.357 255.168 183.551C255.168 185.745 256.946 187.523 259.138 187.523Z" fill="#CCCCCC"/>
<path d="M296.364 191.118C300.53 191.118 303.908 187.739 303.908 183.571C303.908 179.402 300.53 176.023 296.364 176.023C292.198 176.023 288.82 179.402 288.82 183.571C288.82 187.739 292.198 191.118 296.364 191.118Z" fill="#3F3D56"/>
<path d="M296.363 187.543C298.556 187.543 300.333 185.765 300.333 183.571C300.333 181.377 298.556 179.598 296.363 179.598C294.17 179.598 292.393 181.377 292.393 183.571C292.393 185.765 294.17 187.543 296.363 187.543Z" fill="#CCCCCC"/>
<path d="M263.109 162.892L281.358 162.899H283.586L287.347 162.902V162.628L287.35 159.319L287.352 155.603H284.85L282.622 155.601L278.676 155.598H276.449L271.893 155.595L263.109 162.892Z" fill="white"/>
<path d="M290.314 162.905L299.959 162.91L299.961 161.017V157.708L299.964 155.611H298.552L296.324 155.608L290.317 155.606L290.314 162.905Z" fill="white"/>
<path d="M286.105 170.698L287.342 170.698L287.343 168.347L286.106 168.347L286.105 170.698Z" fill="#3F3D56"/>
<path d="M268.052 166.234L268.053 164.996L265.703 164.995L265.702 166.232L268.052 166.234Z" fill="#3F3D56"/>
<path d="M267.188 165.54L267.051 165.54C266.712 165.54 266.376 165.473 266.062 165.343C265.749 165.213 265.464 165.022 265.224 164.782C264.984 164.542 264.794 164.257 264.664 163.943C264.535 163.629 264.468 163.293 264.468 162.953C264.468 162.613 264.535 162.277 264.665 161.964C264.796 161.65 264.986 161.365 265.226 161.125C265.466 160.885 265.751 160.695 266.065 160.565C266.379 160.435 266.715 160.368 267.054 160.369L267.19 160.369L267.188 165.54Z" fill="#3F3D56"/>
<path d="M246.213 175.755C247.148 175.857 248.089 175.625 248.87 175.101C249.652 174.577 250.223 173.793 250.484 172.889C250.744 171.985 250.677 171.017 250.295 170.157C249.913 169.297 249.239 168.6 248.394 168.188C247.185 169.74 246.471 171.62 246.345 173.584L246.213 175.755Z" fill="#3F3D56"/>
<path d="M282.621 155.601L287.346 162.628L287.348 159.319L284.849 155.603L282.621 155.601Z" fill="#F2F2F2"/>
<path d="M296.324 155.609L299.961 161.017V157.708L298.552 155.611L296.324 155.609Z" fill="#F2F2F2"/>
<path d="M276.447 155.598L281.357 162.899H283.585L278.675 155.598H276.447Z" fill="#F2F2F2"/>
<path d="M20.0491 124.615C31.1219 124.615 40.0982 115.634 40.0982 104.556C40.0982 93.4782 31.1219 84.4977 20.0491 84.4977C8.97629 84.4977 0 93.4782 0 104.556C0 115.634 8.97629 124.615 20.0491 124.615Z" fill="#3F3D56"/>
<path d="M20.1324 110.595L10.0991 100.557C9.77277 100.23 9.58959 99.7863 9.58984 99.324C9.5901 98.8617 9.77377 98.4184 10.1005 98.0915C10.4272 97.7646 10.8703 97.5809 11.3324 97.5806C11.7945 97.5804 12.2377 97.7636 12.5648 98.0901L19.9656 105.494L43.5817 78.5511C43.8868 78.2041 44.317 77.9923 44.778 77.9624C45.239 77.9325 45.693 78.0868 46.0403 78.3915C46.3876 78.6963 46.5999 79.1264 46.6304 79.5876C46.6609 80.0487 46.5073 80.5032 46.2032 80.8511L20.1324 110.595Z" fill="#17181C"/>
</g>
<defs>
<clipPath id="clip0_101_3737">
<rect width="355" height="197" fill="white"/>
</clipPath>
</defs>
</svg>
